<svg width="439" height="90" viewBox="0 0 439 90" fill="none" xmlns="http://www.w3.org/2000/svg">
<path d="M24 66H33.9979V50L45.4954 39L56.9929 50V66H66.9908V45L45.4954 24L24 45V66Z" fill="white"/>
<path fill-rule="evenodd" clip-rule="evenodd" d="M97.9841 27.997H84.9869V66.0016H97.9841C100.317 66.0016 105.882 65.1016 109.482 61.5016C113.981 57.0016 113.981 52.497 113.981 45.997C113.981 39.497 113.041 36.5016 109.482 32.497C106.282 28.897 101.483 28.0016 97.9841 27.997ZM91.9854 57.9995V34.9995H97.4843C99.9837 34.9995 102.562 35.9383 104.483 38.4995C105.982 40.4995 105.982 43.4995 105.982 45.4995C105.982 45.6032 105.983 45.7152 105.983 45.8347C105.988 48.0209 106 52.7239 104.483 54.9995C102.883 57.3995 99.1506 57.9995 97.4843 57.9995H91.9854Z" fill="white"/>
<path fill-rule="evenodd" clip-rule="evenodd" d="M142.975 27.997H129.977V66.0016H142.975C145.307 66.0016 150.873 64.597 154.472 60.997C158.971 56.497 158.971 52.497 158.971 45.997C158.971 39.497 158.471 36.997 154.472 32.497C151.273 28.897 145.474 27.997 142.975 27.997ZM136.976 34.9995V57.9995H142.475C144.141 57.9995 147.873 57.3995 149.473 54.9995C150.99 52.7239 150.979 48.0209 150.973 45.8347C150.973 45.7152 150.973 45.6032 150.973 45.4995C150.973 43.4995 150.973 40.4995 149.473 38.4995C147.553 35.9383 144.974 34.9995 142.475 34.9995H136.976Z" fill="white"/>
<path fill-rule="evenodd" clip-rule="evenodd" d="M174.968 27.997H188.965C192.964 27.997 199.062 28.697 201.462 33.497C204.461 39.497 202.962 45.9977 198.963 48.9977L202.962 53.497V66.0009H195.963V56.497L190.964 51.9977H181.966V66.0016L174.968 66.0009V27.997ZM181.966 44.9995V34.9995H189.465C192.964 34.9995 194.963 36.4995 194.963 39.9995C194.963 43.4995 192.131 44.9995 190.464 44.9995H181.966Z" fill="white"/>
<path d="M220.958 27.9977H244.953V36.0016H227.956V42.9977H244.953V51.0016H227.956V57.9977H244.953V66.0009H220.958V27.9977Z" fill="white"/>
<path d="M351.43 42.9977H343.432V50.4977H351.43V42.9977Z" fill="white"/>
<path d="M366.927 27.9977H373.925V65.9977H366.927V27.9977Z" fill="white"/>
<path fill-rule="evenodd" clip-rule="evenodd" d="M386.922 27.997H400.919C404.918 27.997 411.017 28.697 413.417 33.497C416.416 39.497 414.916 45.9977 410.917 48.9977L414.916 53.497V66.0009H407.918V56.497L402.919 51.9977H393.921V66.0016L386.922 66.0009V27.997ZM393.921 44.9995V34.9995H401.419C404.918 34.9995 406.918 36.4995 406.918 39.9995C406.918 43.4995 404.085 44.9995 402.419 44.9995H393.921Z" fill="white"/>
<path d="M286.944 38.9995C286.789 35.5603 283.487 27.9995 274.946 27.9995C264.734 27.9995 261.949 34.9995 261.949 38.9995C261.949 42.9995 264.948 47.2348 274.946 48.9995C283.444 50.4995 280.945 58.9995 274.946 58.9995C268.948 58.9995 266.948 54.4065 266.948 52.9995H259.949C259.949 58.4299 264.448 65.9995 274.946 65.9995C287.479 65.9995 287.943 55.4995 287.943 53.9995C287.943 50.7166 285.319 43.7337 278.445 42.4995C271.447 41.2429 269.947 39.9995 269.947 37.9995C269.947 35.9995 271.406 34.4995 274.446 34.4995C278.565 34.4995 279.981 38.0616 279.981 38.9995H286.944Z" fill="white"/>
<path d="M328.935 38.9995C328.78 35.5603 325.478 27.9995 316.937 27.9995C306.725 27.9995 303.94 34.9995 303.94 38.9995C303.94 42.9995 306.939 47.2348 316.937 48.9995C325.435 50.4995 322.936 58.9995 316.937 58.9995C310.939 58.9995 308.939 54.4065 308.939 52.9995H301.94C301.94 58.4299 306.439 65.9995 316.937 65.9995C329.47 65.9995 329.934 55.4995 329.934 53.9995C329.934 50.7166 327.31 43.7337 320.436 42.4995C313.438 41.2429 311.938 39.9995 311.938 37.9995C311.938 35.9995 313.397 34.4995 316.437 34.4995C320.556 34.4995 321.972 38.0616 321.972 38.9995H328.935Z" fill="white"/>
</svg>
